<svg width="22" height="16" viewBox="0 0 22 16" fill="none" xmlns="http://www.w3.org/2000/svg">
<path d="M11.005 3.36842C13.7663 3.36842 16.0073 5.25474 16.0073 7.57895C16.0073 8.12632 15.8772 8.64 15.6471 9.12L18.5684 11.5789C20.0791 10.5179 21.2697 9.14526 22 7.57895C20.2692 3.88211 15.9973 1.26316 10.995 1.26316C9.59436 1.26316 8.25375 1.47368 7.01319 1.85263L9.17417 3.67158C9.74443 3.47789 10.3547 3.36842 11.005 3.36842ZM1.00045 1.06947L3.28149 2.98947L3.7417 3.37684C2.08095 4.46316 0.780355 5.91158 0 7.57895C1.73079 11.2758 6.00273 13.8947 11.005 13.8947C12.5557 13.8947 14.0364 13.6421 15.387 13.1874L15.8072 13.5411L18.7385 16L20.0091 14.9305L2.27103 0L1.00045 1.06947ZM6.53297 5.72632L8.08367 7.03158C8.03365 7.20842 8.00364 7.39368 8.00364 7.57895C8.00364 8.97684 9.34425 10.1053 11.005 10.1053C11.2251 10.1053 11.4452 10.08 11.6553 10.0379L13.206 11.3432C12.5357 11.6211 11.7954 11.7895 11.005 11.7895C8.24375 11.7895 6.00273 9.90316 6.00273 7.57895C6.00273 6.91368 6.20282 6.29053 6.53297 5.72632ZM10.8449 5.06947L13.9964 7.72211L14.0164 7.58737C14.0164 6.18947 12.6758 5.06105 11.015 5.06105L10.8449 5.06947Z" fill="#CCCCCC"/>
</svg>
